<svg width="77" height="48" viewBox="0 0 77 48" fill="none" xmlns="http://www.w3.org/2000/svg">
<path d="M0 7.35156H7.92755L38.5367 20.5616L68.9256 7.35156H77L67.0539 22.4539L44.1521 21.9808L38.5367 24.0915L32.5543 21.9808L9.61582 22.3083L0 7.35156Z" fill="#FFEB38"/>
<path d="M38.5366 25.4365L32.5909 23.1074L18.7177 23.6169L12.7354 31.2954H20.0023L31.0862 26.2371L38.5366 28.8572L45.8769 26.2371L56.7039 31.2954H64.1176L58.0619 23.6169L44.1886 23.1074L38.5366 25.4365Z" fill="#FFEB38"/>
<path d="M31.4531 28.167L38.5365 30.496L45.5098 28.167L44.7758 31.8425L38.5365 33.9896L32.1872 31.8425L31.4531 28.167Z" fill="#FFEB38"/>
<path d="M32.5176 33.4805L38.5366 35.482L44.4823 33.4805L43.785 37.1196L40.5919 38.2477L38.5366 37.156L36.2611 38.2477L33.2149 37.1196L32.5176 33.4805Z" fill="#FFEB38"/>
<path d="M37.0312 39.1934H39.9674L38.536 48L37.0312 39.1934Z" fill="#FFEB38"/>
<path d="M53.4372 2.51099L48.9229 0L41.5459 7.8605H35.2699L27.8562 0L23.6355 2.51099L27.3424 1.71039L34.3157 8.11524L30.6822 12.0455L38.4997 20.4519L46.0602 12.0455L42.4634 8.11524L49.4734 1.71039L53.4372 2.51099ZM33.3247 12.0091L34.9396 10.5535L36.2609 15.2843L33.3247 12.0091ZM43.4177 11.9727L40.4815 15.2479L41.8028 10.5171L43.4177 11.9727Z" fill="#FFEB38"/>
</svg>
