<svg width="800" height="274" viewBox="0 0 800 274" fill="none" xmlns="http://www.w3.org/2000/svg">
<path d="M567.938 197.763V158.782L685.936 0H746.722L631.228 158.782L602.98 150.557H800V197.763H567.938ZM702.741 250.333V197.763L704.529 150.557V103.709H759.237V250.333H702.741Z" fill="#000080"/>
<path d="M0 197.763V158.782L117.997 0H178.784L63.2896 158.782L35.0417 150.557H232.062V197.763H0ZM134.803 250.333V197.763L136.591 150.557V103.709H191.299V250.333H134.803Z" fill="#000080"/>
<path d="M205.262 63.5254H246.304L404.774 131.926L562.104 63.5254H603.906L552.413 141.724L433.846 139.275L404.774 150.204L373.802 139.275L255.045 140.97L205.262 63.5254Z" fill="#000080"/>
<path d="M404.773 157.168L373.991 145.108L302.167 147.746L271.195 187.505H308.817L366.201 161.313L404.773 174.88L442.775 161.313L498.829 187.505H537.211L505.859 147.746L434.035 145.108L404.773 157.168Z" fill="#000080"/>
<path d="M368.101 171.306L404.773 183.366L440.875 171.306L437.075 190.338L404.773 201.455L371.901 190.338L368.101 171.306Z" fill="#000080"/>
<path d="M373.612 198.819L404.773 209.182L435.555 198.819L431.945 217.662L415.414 223.503L404.773 217.85L392.993 223.503L377.222 217.662L373.612 198.819Z" fill="#000080"/>
<path d="M396.98 228.4H412.181L404.771 274L396.98 228.4Z" fill="#000080"/>
<path d="M481.917 38.4614L458.546 25.4597L420.354 66.1608H387.862L349.479 25.4597L327.628 38.4614L346.819 34.316L382.921 67.4798L364.11 87.8303L404.583 131.358L443.725 87.8303L425.104 67.4798L461.396 34.316L481.917 38.4614ZM377.791 87.6419L386.151 80.1046L392.992 104.601L377.791 87.6419ZM430.044 87.4534L414.843 104.412L421.684 79.9162L430.044 87.4534Z" fill="#000080"/>
</svg>
