<svg width="24" height="22" viewBox="0 0 24 22" fill="none" xmlns="http://www.w3.org/2000/svg">
<path d="M15.2077 1.94382C14.6249 1.02178 13.6142 0 11.9653 0C9.72578 0 7.96973 1.91498 7.96973 4.32178C7.96973 6.92169 9.99646 8.63964 13.0646 11.24C14.6935 12.6207 14.658 12.606 15.23 13.0978C15.7315 12.6656 15.8376 12.56 17.3941 11.24C20.4631 8.63671 22.4923 6.9168 22.4923 4.32178C22.4923 1.91498 20.7358 0 18.4958 0C16.8483 0 15.8128 1.02667 15.2077 1.94382Z" fill="#FFEB38"/>
<path d="M20.317 13.2848L15.0776 17.6002H9.34742V16.1335H15.1896C15.1896 15.3555 14.8818 14.6094 14.334 14.0593C13.7862 13.5092 13.0432 13.2002 12.2685 13.2002H10.3786C10.2325 13.0995 9.20088 11.7531 7.18535 11.7389C5.10019 11.7242 4.02913 13.1024 3.88308 13.2002H0V20.5335H4.01306L6.98282 22.0002H14.3653L24.0015 14.0313L23.5185 13.4446C22.7274 12.5011 21.2644 12.4967 20.317 13.2848Z" fill="#FFEB38"/>
</svg>
