<svg width="60" height="60" viewBox="0 0 60 60" fill="none" xmlns="http://www.w3.org/2000/svg">
<path d="M7.5 54.375H11.25V60H7.5C3.36328 60 0 56.6367 0 52.5V7.5C0 3.36328 3.36328 0 7.5 0H26.8945C28.8867 0 30.7969 0.785156 32.2031 2.19141L42.8086 12.7969C44.2148 14.2031 45 16.1133 45 18.1055V33.75H39.375V18.75H30C27.9258 18.75 26.25 17.0742 26.25 15V5.625H7.5C6.46875 5.625 5.625 6.46875 5.625 7.5V52.5C5.625 53.5312 6.46875 54.375 7.5 54.375ZM20.625 41.25H24.375C27.9961 41.25 30.9375 44.1914 30.9375 47.8125C30.9375 51.4336 27.9961 54.375 24.375 54.375H22.5V58.125C22.5 59.1562 21.6562 60 20.625 60C19.5938 60 18.75 59.1562 18.75 58.125V43.125C18.75 42.0938 19.5938 41.25 20.625 41.25ZM24.375 50.625C25.9336 50.625 27.1875 49.3711 27.1875 47.8125C27.1875 46.2539 25.9336 45 24.375 45H22.5V50.625H24.375ZM35.625 41.25H39.375C42.4805 41.25 45 43.7695 45 46.875V54.375C45 57.4805 42.4805 60 39.375 60H35.625C34.5938 60 33.75 59.1562 33.75 58.125V43.125C33.75 42.0938 34.5938 41.25 35.625 41.25ZM39.375 56.25C40.4062 56.25 41.25 55.4062 41.25 54.375V46.875C41.25 45.8438 40.4062 45 39.375 45H37.5V56.25H39.375ZM48.75 43.125C48.75 42.0938 49.5938 41.25 50.625 41.25H56.25C57.2812 41.25 58.125 42.0938 58.125 43.125C58.125 44.1562 57.2812 45 56.25 45H52.5V48.75H56.25C57.2812 48.75 58.125 49.5938 58.125 50.625C58.125 51.6562 57.2812 52.5 56.25 52.5H52.5V58.125C52.5 59.1562 51.6562 60 50.625 60C49.5938 60 48.75 59.1562 48.75 58.125V43.125Z" fill="#171717"/>
</svg>
