<svg width="50" height="44" viewBox="0 0 50 44" fill="none" xmlns="http://www.w3.org/2000/svg">
<path d="M45.8171 34C47.04 31.2 47.7142 28.1029 47.7142 24.8571C47.7142 12.2286 37.4857 2 24.8571 2C12.2286 2 2 12.2286 2 24.8571H24.8571L24.8686 34C24.8686 38.4229 28.4457 42 32.8685 42C37.2914 42 40.8685 38.4229 40.8685 34H45.8171Z" stroke="#000080" stroke-width="3" stroke-miterlimit="2" stroke-linecap="round" stroke-linejoin="round"/>
<path d="M32.8571 36.2857C34.1142 36.2857 35.1428 35.2572 35.1428 34C35.1428 32.7429 34.1142 31.7143 32.8571 31.7143C31.6 31.7143 30.5714 32.7429 30.5714 34C30.5714 35.2572 31.6 36.2857 32.8571 36.2857Z" fill="#000080"/>
</svg>
