<svg width="41" height="35" viewBox="0 0 41 35" fill="none" xmlns="http://www.w3.org/2000/svg">
<rect x="9.05957" y="2.68066" width="23.6441" height="11.4407" fill="white"/>
<path d="M7.25452 24.6944C9.33603 24.6944 11.0391 22.9913 11.0391 20.9098C11.0391 18.8283 9.33603 17.1252 7.25452 17.1252C5.173 17.1252 3.46994 18.8283 3.46994 20.9098C3.46994 22.9913 5.173 24.6944 7.25452 24.6944ZM29.962 20.9098C29.962 22.9913 31.665 24.6944 33.7466 24.6944C35.8281 24.6944 37.5311 22.9913 37.5311 20.9098C37.5311 18.8283 35.8281 17.1252 33.7466 17.1252C31.665 17.0306 29.962 18.7337 29.962 20.9098ZM28.1643 22.1398C27.9751 21.1937 27.9751 20.1529 28.2589 19.0175C28.732 17.5037 29.8674 16.3683 31.2866 15.706C32.5166 15.1383 33.652 15.0437 34.6927 15.2329C34.9766 15.3275 35.2604 15.0437 35.2604 14.7599V1.89229C35.2604 0.85153 34.4089 0 33.3681 0H7.82221C6.78145 0 5.92992 0.85153 5.92992 1.89229V14.7599C5.92992 15.0437 6.21375 15.2329 6.4976 15.2329C7.72758 15.0437 9.05219 15.2329 10.4714 16.1791C11.5122 16.8414 12.2691 17.8821 12.6475 19.0175C13.026 20.1529 13.026 21.1937 12.8368 22.1398C12.7421 22.4237 13.026 22.7075 13.3098 22.7075H14.4452C14.8237 22.7075 15.0129 22.5182 15.0129 22.329C15.5806 19.869 17.8513 17.9767 20.5952 17.9767C23.2444 17.9767 25.5151 19.869 26.1774 22.329C26.272 22.5182 26.3666 22.7075 26.6505 22.7075H27.8805C28.0697 22.7075 28.2589 22.4237 28.1643 22.1398ZM20.0275 13.0568H13.4045C12.7422 13.0568 12.2691 12.4891 12.2691 11.9214C12.2691 11.3537 12.8368 10.7861 13.4045 10.7861H20.0275C20.6898 10.7861 21.1629 11.3537 21.1629 11.9214C21.1629 12.4891 20.6898 13.0568 20.0275 13.0568ZM13.4045 8.32609C12.7422 8.32609 12.2691 7.75839 12.2691 7.19071C12.2691 6.62302 12.8368 6.05535 13.4045 6.05535H28.5428C29.2051 6.05535 29.6782 6.62302 29.6782 7.19071C29.6782 7.75839 29.1105 8.32609 28.5428 8.32609H13.4045ZM11.0391 26.5867H3.46994C1.76688 26.5867 0.347656 28.0059 0.347656 29.709V30.5605C0.347656 31.1282 0.726114 31.5066 1.2938 31.5066H11.4175C11.6068 31.5066 11.796 31.3174 11.8906 31.1282C12.1745 30.0874 12.7422 29.2359 13.5937 28.5736C13.7829 28.3844 13.8775 28.1005 13.6883 27.9113C13.1206 27.1544 12.1745 26.5867 11.0391 26.5867ZM37.5311 26.5867H29.962C28.8266 26.5867 27.8805 27.1544 27.3128 28.0059C27.2182 28.1951 27.2182 28.479 27.4074 28.6682C28.1643 29.3305 28.8266 30.182 29.1105 31.2228C29.2051 31.412 29.3943 31.6013 29.5835 31.6013H39.7073C40.275 31.6013 40.6534 31.2228 40.6534 30.6551V29.8036C40.6534 28.0059 39.2342 26.5867 37.5311 26.5867Z" fill="#000080"/>
<path d="M20.5006 27.5325C22.5821 27.5325 24.2852 25.8295 24.2852 23.748C24.2852 21.6664 22.5821 19.9634 20.5006 19.9634C18.4191 19.9634 16.716 21.6664 16.716 23.748C16.716 25.8295 18.4191 27.5325 20.5006 27.5325ZM24.2852 29.4248H16.716C15.013 29.4248 13.5938 30.8441 13.5938 32.5471V33.3986C13.5938 33.9663 13.9722 34.3448 14.5399 34.3448H26.4613C27.029 34.3448 27.4075 33.9663 27.4075 33.3986V32.5471C27.4075 30.8441 25.9882 29.4248 24.2852 29.4248Z" fill="#000080"/>
</svg>
