<svg width="9" height="9" viewBox="0 0 9 9" fill="none" xmlns="http://www.w3.org/2000/svg">
<path d="M1.41683 0.708333H1.29183V0.833333V6.32083V6.62261L1.50522 6.40922L1.95611 5.95833H8.0835H8.2085V5.83333V0.833333V0.708333H8.0835H1.41683ZM0.712663 0.833403V0.833333C0.712663 0.443219 1.02835 0.125 1.41683 0.125H8.0835C8.47279 0.125 8.79183 0.444036 8.79183 0.833333V5.83333C8.79183 6.22263 8.47279 6.54167 8.0835 6.54167H2.25016H2.19839L2.16177 6.57828L0.708664 8.03139L0.712663 0.833403ZM2.37516 4.29167H7.12516V4.875H2.37516V4.29167ZM2.37516 3.04167H7.12516V3.625H2.37516V3.04167ZM2.37516 1.79167H7.12516V2.375H2.37516V1.79167Z" fill="white" stroke="#59677A" stroke-width="0.25"/>
</svg>
